<svg xmlns="http://www.w3.org/2000/svg" viewBox="0 0 256 256" width="256" height="256">
  <defs>
    <linearGradient id="bg" x1="0%" y1="0%" x2="100%" y2="100%">
      <stop offset="0%" stop-color="#1a1a2e"/>
      <stop offset="100%" stop-color="#0f0f1a"/>
    </linearGradient>
  </defs>
  <rect width="256" height="256" rx="56" fill="url(#bg)"/>
  <!-- Central hexagon with > inside -->
  <polygon points="128,60 186,94 186,162 128,196 70,162 70,94" stroke="#ff4757" stroke-width="6" fill="none" opacity="0.9"/>
  <path d="M108 116 L130 128 L108 140" stroke="#ff4757" stroke-width="8" stroke-linecap="round" stroke-linejoin="round" fill="none"/>
  <rect x="140" y="122" width="18" height="12" rx="3" fill="#ff4757" opacity="0.4"/>
  <!-- Small satellite hexagons -->
  <polygon points="48,48 64,40 80,48 80,64 64,72 48,64" stroke="#ff4757" stroke-width="2" fill="none" opacity="0.25"/>
  <polygon points="176,40 192,32 208,40 208,56 192,64 176,56" stroke="#ff4757" stroke-width="2" fill="none" opacity="0.2"/>
  <polygon points="200,180 216,172 232,180 232,196 216,204 200,196" stroke="#ff4757" stroke-width="2" fill="none" opacity="0.15"/>
</svg>
