<?xml version="1.0" encoding="UTF-8"?>
<svg xmlns="http://www.w3.org/2000/svg" viewBox="0 0 1200 400" role="img" aria-label="AI Launcher Pro banner" font-family='"JetBrains Mono", "Cascadia Code", "Consolas", ui-monospace, monospace'>
  <defs>
    <linearGradient id="bgGrad" x1="0" y1="0" x2="1" y2="1">
      <stop offset="0" stop-color="#0A0A0C"/>
      <stop offset="1" stop-color="#141418"/>
    </linearGradient>
    <pattern id="dots" x="0" y="0" width="20" height="20" patternUnits="userSpaceOnUse">
      <circle cx="10" cy="10" r="0.6" fill="#2A2A30" fill-opacity="0.35"/>
    </pattern>
    <pattern id="scanlines" x="0" y="0" width="4" height="3" patternUnits="userSpaceOnUse">
      <rect x="0" y="0" width="4" height="1" fill="#FFFFFF" fill-opacity="0.03"/>
    </pattern>
    <radialGradient id="tlRed" cx="0.5" cy="0.5" r="0.5">
      <stop offset="0" stop-color="#FF7264"/>
      <stop offset="1" stop-color="#EC5545"/>
    </radialGradient>
    <radialGradient id="tlYellow" cx="0.5" cy="0.5" r="0.5">
      <stop offset="0" stop-color="#FFD85C"/>
      <stop offset="1" stop-color="#EFBF38"/>
    </radialGradient>
    <radialGradient id="tlGreen" cx="0.5" cy="0.5" r="0.5">
      <stop offset="0" stop-color="#74E07A"/>
      <stop offset="1" stop-color="#55C658"/>
    </radialGradient>
  </defs>

  <!-- Background -->
  <rect width="1200" height="400" fill="url(#bgGrad)"/>
  <rect width="1200" height="400" fill="url(#dots)"/>

  <!-- ============================= -->
  <!-- LEFT PANEL: terminal mock     -->
  <!-- ============================= -->
  <g transform="translate(32,28)">
    <!-- Panel shell -->
    <rect x="0" y="0" width="620" height="284" rx="10" ry="10" fill="#16161A" stroke="#2A2A30" stroke-width="1"/>

    <!-- Title bar -->
    <rect x="0" y="0" width="620" height="30" rx="10" ry="10" fill="#1A1A1F"/>
    <rect x="0" y="16" width="620" height="14" fill="#1A1A1F"/>
    <line x1="0" y1="30" x2="620" y2="30" stroke="#2A2A30" stroke-width="1"/>

    <!-- Traffic lights w/ halo -->
    <circle cx="18" cy="15" r="8" fill="#EC5545" fill-opacity="0.18"/>
    <circle cx="18" cy="15" r="5" fill="url(#tlRed)"/>
    <circle cx="38" cy="15" r="8" fill="#EFBF38" fill-opacity="0.18"/>
    <circle cx="38" cy="15" r="5" fill="url(#tlYellow)"/>
    <circle cx="58" cy="15" r="8" fill="#55C658" fill-opacity="0.18"/>
    <circle cx="58" cy="15" r="5" fill="url(#tlGreen)"/>

    <!-- Filename pill (centered) -->
    <rect x="200" y="7" width="220" height="16" rx="8" ry="8" fill="#0F0F14" stroke="#2A2A30" stroke-width="1"/>
    <text x="310" y="18" fill="#AFAAA0" font-size="10" text-anchor="middle" letter-spacing="0.4">ai-launcher — terminal — v7.1 — pt-BR</text>

    <!-- Scanlines overlay on content area -->
    <rect x="1" y="31" width="618" height="252" fill="url(#scanlines)"/>

    <!-- Terminal content -->
    <g font-size="13">
      <!-- Line 1: invocation -->
      <text x="20" y="58" fill="#E5514F">$</text>
      <text x="36" y="58" fill="#E8E4DB">ai-launcher</text>

      <!-- Line 2: active provider -->
      <text x="20" y="82" fill="#E5514F">●</text>
      <text x="36" y="82" fill="#AFAAA0">active:</text>
      <text x="92" y="82" fill="#E8E4DB">kimi-k2-0905</text>
      <text x="196" y="82" fill="#6D6A68">(256k ctx)</text>

      <!-- Line 3: launch command -->
      <text x="20" y="114" fill="#E5514F">&gt;</text>
      <text x="36" y="114" fill="#E8E4DB">launch claude</text>
      <text x="144" y="114" fill="#AFAAA0">--dir ./app</text>

      <!-- Line 4-5: launch meta -->
      <text x="44" y="134" fill="#6D6A68">[env]</text>
      <text x="88" y="134" fill="#AFAAA0">ANTHROPIC_BASE_URL</text>
      <text x="240" y="134" fill="#6D6A68">: ***</text>
      <text x="44" y="152" fill="#6D6A68">[pid]</text>
      <text x="88" y="152" fill="#E8E4DB">44892</text>
      <text x="140" y="152" fill="#6D6A68">· session ready 184ms</text>

      <!-- Line 6: history -->
      <text x="20" y="184" fill="#E5514F">&gt;</text>
      <text x="36" y="184" fill="#E8E4DB">history</text>
      <text x="96" y="184" fill="#AFAAA0">--last 3</text>

      <!-- History rows -->
      <text x="44" y="204" fill="#E8E4DB">claude</text>
      <text x="108" y="204" fill="#6D6A68">· 2h ago</text>
      <text x="180" y="204" fill="#AFAAA0">1.2M tokens</text>
      <text x="44" y="222" fill="#E8E4DB">codex</text>
      <text x="108" y="222" fill="#6D6A68">· 5h ago</text>
      <text x="180" y="222" fill="#AFAAA0">842K tokens</text>
      <text x="44" y="240" fill="#E8E4DB">gemini</text>
      <text x="108" y="240" fill="#6D6A68">· 9h ago</text>
      <text x="180" y="240" fill="#AFAAA0">234K tokens</text>

      <!-- Prompt + cursor -->
      <text x="20" y="268" fill="#E5514F">&gt;</text>
      <rect x="36" y="257" width="9" height="14" fill="#E5514F"/>
    </g>
  </g>

  <!-- ============================= -->
  <!-- RIGHT PANEL: brand + ticks    -->
  <!-- ============================= -->
  <g transform="translate(684,28)">
    <!-- Panel shell (softer than terminal) -->
    <rect x="0" y="0" width="484" height="284" rx="10" ry="10" fill="#0F0F14" stroke="#2A2A30" stroke-width="1"/>

    <!-- Wordmark -->
    <text x="28" y="66" fill="#F5F1E8" font-size="38" font-weight="800" letter-spacing="3.2">AI LAUNCHER</text>
    <text x="28" y="104" fill="#F5F1E8" font-size="38" font-weight="800" letter-spacing="3.2">PRO</text>
    <!-- PRO accent underline -->
    <rect x="28" y="112" width="88" height="3" fill="#E5514F"/>

    <!-- Tagline -->
    <text x="28" y="146" fill="#AFAAA0" font-size="14">eight AI CLIs. one terminal-native</text>
    <text x="28" y="164" fill="#AFAAA0" font-size="14">launcher.</text>

    <!-- Hairline separator -->
    <line x1="28" y1="182" x2="456" y2="182" stroke="#2A2A30" stroke-width="1"/>

    <!-- Feature ticks -->
    <g font-size="13">
      <text x="28" y="204" fill="#E5514F">▣</text>
      <text x="48" y="204" fill="#E8E4DB">bilingual interface (EN / pt-BR)</text>

      <text x="28" y="224" fill="#E5514F">▣</text>
      <text x="48" y="224" fill="#E8E4DB">6 Anthropic-compatible providers</text>

      <text x="28" y="244" fill="#E5514F">▣</text>
      <text x="48" y="244" fill="#E8E4DB">custom CLIs + IDEs at runtime</text>

      <text x="28" y="264" fill="#E5514F">▣</text>
      <text x="48" y="264" fill="#E8E4DB">local-first, zero telemetry</text>
    </g>

    <!-- Second hairline -->
    <line x1="28" y1="276" x2="456" y2="276" stroke="#2A2A30" stroke-width="1"/>
  </g>

  <!-- Footer strip -->
  <g transform="translate(0,340)">
    <rect x="0" y="0" width="1200" height="60" fill="#0F0F14"/>
    <line x1="0" y1="0" x2="1200" y2="0" stroke="#2A2A30" stroke-width="1"/>

    <!-- Left: online indicator -->
    <circle cx="40" cy="30" r="8" fill="#55C658" fill-opacity="0.18"/>
    <circle cx="40" cy="30" r="4" fill="url(#tlGreen)"/>
    <text x="54" y="34" fill="#AFAAA0" font-size="12">online</text>
    <text x="108" y="34" fill="#5A565A" font-size="12">·</text>
    <text x="120" y="34" fill="#AFAAA0" font-size="12">v7.1.0 · MIT licensed</text>

    <!-- Center: stack -->
    <text x="600" y="34" fill="#6D6A68" font-size="12" text-anchor="middle">tauri v2 · react 19 · windows first — macOS / Linux soon</text>

    <!-- Right: date -->
    <text x="1160" y="34" fill="#6D6A68" font-size="12" text-anchor="end">April 2026</text>
  </g>

  <!-- Bottom hairline accent -->
  <rect x="0" y="399" width="1200" height="1" fill="#E5514F" fill-opacity="0.3"/>
</svg>
